<svg width="15" height="16" viewBox="0 0 15 16" fill="none" xmlns="http://www.w3.org/2000/svg">
<circle cx="7.5" cy="8.5" r="7.5" fill="#C4C4C4"/>
<path d="M11.4936 11.519C11.5283 11.5623 11.5456 11.623 11.5456 11.701C11.5456 11.779 11.5153 11.8483 11.4546 11.909C11.3939 11.9697 11.3203 12 11.2336 12H8.73759C8.58159 12 8.45159 11.9263 8.34759 11.779L7.48959 10.518L6.59259 11.779C6.49726 11.9263 6.36726 12 6.20259 12H3.77159C3.68492 12 3.61126 11.9697 3.55059 11.909C3.48992 11.8483 3.45959 11.779 3.45959 11.701C3.45959 11.623 3.47692 11.5623 3.51159 11.519L5.61759 8.516L3.74559 5.721C3.71092 5.669 3.69359 5.60833 3.69359 5.539C3.69359 5.461 3.72392 5.39167 3.78459 5.331C3.84526 5.27033 3.91892 5.24 4.00559 5.24H6.38459C6.54926 5.24 6.68792 5.32233 6.80059 5.487L7.55459 6.644L8.30859 5.487C8.42126 5.32233 8.55992 5.24 8.72459 5.24H10.9996C11.0863 5.24 11.1599 5.27033 11.2206 5.331C11.2813 5.39167 11.3116 5.461 11.3116 5.539C11.3116 5.60833 11.2943 5.669 11.2596 5.721L9.34859 8.503L11.4936 11.519Z" fill="black"/>
</svg>
