<svg width="333" height="58" viewBox="0 0 333 58" fill="none" xmlns="http://www.w3.org/2000/svg">
<g filter="url(#filter0_d)">
<rect x="47" width="242" height="50" fill="#776E65"/>
<ellipse cx="52.5" cy="25" rx="35.5" ry="25" fill="#776E65"/>
<ellipse cx="52.5" cy="25" rx="35.5" ry="25" fill="#776E65"/>
<ellipse cx="290.5" cy="25" rx="35.5" ry="25" fill="#776E65"/>
<g filter="url(#filter1_d)">
<path fill-rule="evenodd" clip-rule="evenodd" d="M160.65 12.3947C160.651 12.3947 160.65 12.396 160.648 12.3983L160.65 12.3947ZM160.636 12.9994V35.0006L180.358 24.056C180.361 24.0399 180.364 24.0209 180.364 24C180.364 23.9791 180.361 23.9601 180.358 23.944L160.636 12.9994ZM160.65 35.6053C160.65 35.6054 160.65 35.6042 160.648 35.6016L160.65 35.6053ZM157.399 8.68456C158.953 7.83531 161.077 7.70455 162.872 8.70116L183.631 20.2214C185.314 21.1553 186 22.6753 186 24C186 25.3247 185.314 26.8447 183.631 27.7786L162.872 39.2988C161.077 40.2955 158.953 40.1647 157.399 39.3154C155.898 38.495 155 37.0755 155 35.5203V12.4797C155 10.9245 155.898 9.50496 157.399 8.68456Z" fill="#F2F2F2"/>
</g>
<g filter="url(#filter2_d)">
<path fill-rule="evenodd" clip-rule="evenodd" d="M247.268 23.3838C248.244 24.2764 248.244 25.7236 247.268 26.6162L232.268 40.3305C231.291 41.2232 229.709 41.2232 228.732 40.3305C227.756 39.4379 227.756 37.9907 228.732 37.098L241.964 25L228.732 12.902C227.756 12.0093 227.756 10.5621 228.732 9.66947C229.709 8.77684 231.291 8.77684 232.268 9.66947L247.268 23.3838Z" fill="#F2F2F2"/>
</g>
<g filter="url(#filter3_d)">
<path fill-rule="evenodd" clip-rule="evenodd" d="M262.268 23.3838C263.244 24.2764 263.244 25.7236 262.268 26.6162L247.268 40.3305C246.291 41.2232 244.709 41.2232 243.732 40.3305C242.756 39.4379 242.756 37.9907 243.732 37.098L256.964 25L243.732 12.902C242.756 12.0093 242.756 10.5621 243.732 9.66947C244.709 8.77684 246.291 8.77684 247.268 9.66947L262.268 23.3838Z" fill="#F2F2F2"/>
</g>
<g filter="url(#filter4_d)">
<path fill-rule="evenodd" clip-rule="evenodd" d="M91.8055 26.6162C90.7315 25.7236 90.7315 24.2764 91.8055 23.3838L108.305 9.66947C109.379 8.77684 111.121 8.77684 112.195 9.66947C113.268 10.5621 113.268 12.0093 112.195 12.902L97.6391 25L112.195 37.098C113.268 37.9907 113.268 39.4379 112.195 40.3305C111.121 41.2232 109.379 41.2232 108.305 40.3305L91.8055 26.6162Z" fill="#F2F2F2"/>
</g>
<g filter="url(#filter5_d)">
<path fill-rule="evenodd" clip-rule="evenodd" d="M72.8055 26.6162C71.7315 25.7236 71.7315 24.2764 72.8055 23.3838L89.3055 9.66947C90.3794 8.77684 92.1206 8.77684 93.1945 9.66947C94.2685 10.5621 94.2685 12.0093 93.1945 12.902L78.6391 25L93.1945 37.098C94.2685 37.9907 94.2685 39.4379 93.1945 40.3305C92.1206 41.2232 90.3794 41.2232 89.3055 40.3305L72.8055 26.6162Z" fill="#F2F2F2"/>
</g>
</g>
<defs>
<filter id="filter0_d" x="-4" y="0" width="341" height="58" filterUnits="userSpaceOnUse" color-interpolation-filters="sRGB">
<feFlood flood-opacity="0" result="BackgroundImageFix"/>
<feColorMatrix in="SourceAlpha" type="matrix" values="0 0 0 0 0 0 0 0 0 0 0 0 0 0 0 0 0 0 127 0"/>
<feOffset dy="4"/>
<feGaussianBlur stdDeviation="2"/>
<feColorMatrix type="matrix" values="0 0 0 0 0 0 0 0 0 0 0 0 0 0 0 0 0 0 0.25 0"/>
<feBlend mode="normal" in2="BackgroundImageFix" result="effect1_dropShadow"/>
<feBlend mode="normal" in="SourceGraphic" in2="effect1_dropShadow" result="shape"/>
</filter>
<filter id="filter1_d" x="151" y="8" width="39" height="40" filterUnits="userSpaceOnUse" color-interpolation-filters="sRGB">
<feFlood flood-opacity="0" result="BackgroundImageFix"/>
<feColorMatrix in="SourceAlpha" type="matrix" values="0 0 0 0 0 0 0 0 0 0 0 0 0 0 0 0 0 0 127 0"/>
<feOffset dy="4"/>
<feGaussianBlur stdDeviation="2"/>
<feColorMatrix type="matrix" values="0 0 0 0 0 0 0 0 0 0 0 0 0 0 0 0 0 0 0.25 0"/>
<feBlend mode="normal" in2="BackgroundImageFix" result="effect1_dropShadow"/>
<feBlend mode="normal" in="SourceGraphic" in2="effect1_dropShadow" result="shape"/>
</filter>
<filter id="filter2_d" x="224" y="9" width="28" height="40" filterUnits="userSpaceOnUse" color-interpolation-filters="sRGB">
<feFlood flood-opacity="0" result="BackgroundImageFix"/>
<feColorMatrix in="SourceAlpha" type="matrix" values="0 0 0 0 0 0 0 0 0 0 0 0 0 0 0 0 0 0 127 0"/>
<feOffset dy="4"/>
<feGaussianBlur stdDeviation="2"/>
<feColorMatrix type="matrix" values="0 0 0 0 0 0 0 0 0 0 0 0 0 0 0 0 0 0 0.25 0"/>
<feBlend mode="normal" in2="BackgroundImageFix" result="effect1_dropShadow"/>
<feBlend mode="normal" in="SourceGraphic" in2="effect1_dropShadow" result="shape"/>
</filter>
<filter id="filter3_d" x="239" y="9" width="28" height="40" filterUnits="userSpaceOnUse" color-interpolation-filters="sRGB">
<feFlood flood-opacity="0" result="BackgroundImageFix"/>
<feColorMatrix in="SourceAlpha" type="matrix" values="0 0 0 0 0 0 0 0 0 0 0 0 0 0 0 0 0 0 127 0"/>
<feOffset dy="4"/>
<feGaussianBlur stdDeviation="2"/>
<feColorMatrix type="matrix" values="0 0 0 0 0 0 0 0 0 0 0 0 0 0 0 0 0 0 0.25 0"/>
<feBlend mode="normal" in2="BackgroundImageFix" result="effect1_dropShadow"/>
<feBlend mode="normal" in="SourceGraphic" in2="effect1_dropShadow" result="shape"/>
</filter>
<filter id="filter4_d" x="87" y="9" width="30" height="40" filterUnits="userSpaceOnUse" color-interpolation-filters="sRGB">
<feFlood flood-opacity="0" result="BackgroundImageFix"/>
<feColorMatrix in="SourceAlpha" type="matrix" values="0 0 0 0 0 0 0 0 0 0 0 0 0 0 0 0 0 0 127 0"/>
<feOffset dy="4"/>
<feGaussianBlur stdDeviation="2"/>
<feColorMatrix type="matrix" values="0 0 0 0 0 0 0 0 0 0 0 0 0 0 0 0 0 0 0.25 0"/>
<feBlend mode="normal" in2="BackgroundImageFix" result="effect1_dropShadow"/>
<feBlend mode="normal" in="SourceGraphic" in2="effect1_dropShadow" result="shape"/>
</filter>
<filter id="filter5_d" x="68" y="9" width="30" height="40" filterUnits="userSpaceOnUse" color-interpolation-filters="sRGB">
<feFlood flood-opacity="0" result="BackgroundImageFix"/>
<feColorMatrix in="SourceAlpha" type="matrix" values="0 0 0 0 0 0 0 0 0 0 0 0 0 0 0 0 0 0 127 0"/>
<feOffset dy="4"/>
<feGaussianBlur stdDeviation="2"/>
<feColorMatrix type="matrix" values="0 0 0 0 0 0 0 0 0 0 0 0 0 0 0 0 0 0 0.25 0"/>
<feBlend mode="normal" in2="BackgroundImageFix" result="effect1_dropShadow"/>
<feBlend mode="normal" in="SourceGraphic" in2="effect1_dropShadow" result="shape"/>
</filter>
</defs>
</svg>
