<svg width="37" height="34" viewBox="0 0 37 34" fill="none" xmlns="http://www.w3.org/2000/svg">
<path fill-rule="evenodd" clip-rule="evenodd" d="M17.3642 0.376949C18.0323 -0.12565 18.9677 -0.12565 19.6358 0.376949L36.2857 12.9033C37.0922 13.51 37.2375 14.6343 36.6102 15.4144C35.9829 16.1945 34.8206 16.3351 34.0141 15.7283L18.5 4.05649L2.98586 15.7283C2.17936 16.3351 1.01706 16.1945 0.389782 15.4144C-0.237495 14.6343 -0.0922069 13.51 0.714292 12.9033L17.3642 0.376949Z" fill="black"/>
<path fill-rule="evenodd" clip-rule="evenodd" d="M5.55006 9.8421C6.57178 9.8421 7.40005 10.6433 7.40005 11.6316V30.4211H14.8V25.0526C14.8 24.0643 15.6283 23.2632 16.65 23.2632H20.35C21.3717 23.2632 22.2 24.0643 22.2 25.0526V30.4211H29.5999V12.5263C29.5999 11.538 30.4282 10.7368 31.4499 10.7368C32.4717 10.7368 33.2999 11.538 33.2999 12.5263V32.2105C33.2999 33.1988 32.4717 34 31.4499 34H5.55006C4.52834 34 3.70007 33.1988 3.70007 32.2105V11.6316C3.70007 10.6433 4.52834 9.8421 5.55006 9.8421Z" fill="black"/>
</svg>
