<svg width="25" height="30" viewBox="0 0 25 30" fill="none" xmlns="http://www.w3.org/2000/svg">
<circle cx="12.5" cy="15.5" r="12.5" fill="#C4C4C4"/>
<path d="M10.4161 20.624V16.76H6.69613C6.52013 16.76 6.36813 16.696 6.24013 16.568C6.11213 16.44 6.04813 16.288 6.04813 16.112V13.496C6.04813 13.32 6.11213 13.168 6.24013 13.04C6.36813 12.912 6.52013 12.848 6.69613 12.848H10.4161V9.104C10.4161 8.928 10.4801 8.776 10.6081 8.648C10.7361 8.52 10.8881 8.456 11.0641 8.456H13.9921C14.1681 8.456 14.3201 8.52 14.4481 8.648C14.5761 8.776 14.6401 8.928 14.6401 9.104V12.848H18.3121C18.4881 12.848 18.6401 12.912 18.7681 13.04C18.8961 13.168 18.9601 13.32 18.9601 13.496V16.112C18.9601 16.288 18.8961 16.44 18.7681 16.568C18.6401 16.696 18.4881 16.76 18.3121 16.76H14.6401V20.624C14.6401 20.8 14.5761 20.952 14.4481 21.08C14.3201 21.208 14.1681 21.272 13.9921 21.272H11.0641C10.8881 21.272 10.7361 21.208 10.6081 21.08C10.4801 20.952 10.4161 20.8 10.4161 20.624Z" fill="black"/>
</svg>
