<svg width="346" height="100" viewBox="0 0 346 100" fill="none" xmlns="http://www.w3.org/2000/svg">
<g filter="url(#filter0_d)">
<rect x="4" width="148" height="92" fill="#EEE4DA"/>
</g>
<path d="M50.4375 27.5234C50.4375 26.8594 50.2031 26.3516 49.7344 26C49.2656 25.6406 48.4219 25.2656 47.2031 24.875C45.9844 24.4766 45.0195 24.0859 44.3086 23.7031C42.3711 22.6562 41.4023 21.2461 41.4023 19.4727C41.4023 18.5508 41.6602 17.7305 42.1758 17.0117C42.6992 16.2852 43.4453 15.7188 44.4141 15.3125C45.3906 14.9062 46.4844 14.7031 47.6953 14.7031C48.9141 14.7031 50 14.9258 50.9531 15.3711C51.9062 15.8086 52.6445 16.4297 53.168 17.2344C53.6992 18.0391 53.9648 18.9531 53.9648 19.9766H50.4492C50.4492 19.1953 50.2031 18.5898 49.7109 18.1602C49.2188 17.7227 48.5273 17.5039 47.6367 17.5039C46.7773 17.5039 46.1094 17.6875 45.6328 18.0547C45.1562 18.4141 44.918 18.8906 44.918 19.4844C44.918 20.0391 45.1953 20.5039 45.75 20.8789C46.3125 21.2539 47.1367 21.6055 48.2227 21.9336C50.2227 22.5352 51.6797 23.2812 52.5938 24.1719C53.5078 25.0625 53.9648 26.1719 53.9648 27.5C53.9648 28.9766 53.4062 30.1367 52.2891 30.9805C51.1719 31.8164 49.668 32.2344 47.7773 32.2344C46.4648 32.2344 45.2695 31.9961 44.1914 31.5195C43.1133 31.0352 42.2891 30.375 41.7188 29.5391C41.1562 28.7031 40.875 27.7344 40.875 26.6328H44.4023C44.4023 28.5156 45.5273 29.457 47.7773 29.457C48.6133 29.457 49.2656 29.2891 49.7344 28.9531C50.2031 28.6094 50.4375 28.1328 50.4375 27.5234ZM69.75 26.3164C69.6172 28.1523 68.9375 29.5977 67.7109 30.6523C66.4922 31.707 64.8828 32.2344 62.8828 32.2344C60.6953 32.2344 58.9727 31.5 57.7148 30.0312C56.4648 28.5547 55.8398 26.5312 55.8398 23.9609V22.918C55.8398 21.2773 56.1289 19.832 56.707 18.582C57.2852 17.332 58.1094 16.375 59.1797 15.7109C60.2578 15.0391 61.5078 14.7031 62.9297 14.7031C64.8984 14.7031 66.4844 15.2305 67.6875 16.2852C68.8906 17.3398 69.5859 18.8203 69.7734 20.7266H66.2578C66.1719 19.625 65.8633 18.8281 65.332 18.3359C64.8086 17.8359 64.0078 17.5859 62.9297 17.5859C61.7578 17.5859 60.8789 18.0078 60.293 18.8516C59.7148 19.6875 59.418 20.9883 59.4023 22.7539V24.043C59.4023 25.8867 59.6797 27.2344 60.2344 28.0859C60.7969 28.9375 61.6797 29.3633 62.8828 29.3633C63.9688 29.3633 64.7773 29.1172 65.3086 28.625C65.8477 28.125 66.1562 27.3555 66.2344 26.3164H69.75ZM86.0742 23.8555C86.0742 25.5352 85.7773 27.0078 85.1836 28.2734C84.5898 29.5391 83.7383 30.5156 82.6289 31.2031C81.5273 31.8906 80.2617 32.2344 78.832 32.2344C77.418 32.2344 76.1562 31.8945 75.0469 31.2148C73.9375 30.5352 73.0781 29.5664 72.4688 28.3086C71.8594 27.043 71.5508 25.5898 71.543 23.9492V23.1055C71.543 21.4258 71.8438 19.9492 72.4453 18.6758C73.0547 17.3945 73.9102 16.4141 75.0117 15.7344C76.1211 15.0469 77.3867 14.7031 78.8086 14.7031C80.2305 14.7031 81.4922 15.0469 82.5938 15.7344C83.7031 16.4141 84.5586 17.3945 85.1602 18.6758C85.7695 19.9492 86.0742 21.4219 86.0742 23.0938V23.8555ZM82.5117 23.082C82.5117 21.293 82.1914 19.9336 81.5508 19.0039C80.9102 18.0742 79.9961 17.6094 78.8086 17.6094C77.6289 17.6094 76.7188 18.0703 76.0781 18.9922C75.4375 19.9062 75.1133 21.25 75.1055 23.0234V23.8555C75.1055 25.5977 75.4258 26.9492 76.0664 27.9102C76.707 28.8711 77.6289 29.3516 78.832 29.3516C80.0117 29.3516 80.918 28.8906 81.5508 27.9688C82.1836 27.0391 82.5039 25.6875 82.5117 23.9141V23.082ZM94.9453 25.7539H92.1445V32H88.6289V14.9375H94.9688C96.9844 14.9375 98.5391 15.3867 99.6328 16.2852C100.727 17.1836 101.273 18.4531 101.273 20.0938C101.273 21.2578 101.02 22.2305 100.512 23.0117C100.012 23.7852 99.25 24.4023 98.2266 24.8633L101.918 31.8359V32H98.1445L94.9453 25.7539ZM92.1445 22.9062H94.9805C95.8633 22.9062 96.5469 22.6836 97.0312 22.2383C97.5156 21.7852 97.7578 21.1641 97.7578 20.375C97.7578 19.5703 97.5273 18.9375 97.0664 18.4766C96.6133 18.0156 95.9141 17.7852 94.9688 17.7852H92.1445V22.9062ZM114.223 24.6055H107.473V29.1758H115.395V32H103.957V14.9375H115.371V17.7852H107.473V21.8516H114.223V24.6055Z" fill="#776E65"/>
<g filter="url(#filter1_d)">
<path d="M61.9238 74H55.9824V55.0859L50.1465 56.791V52.291L61.3789 48.4062H61.9238V74ZM87.5 74H69.6406V70.1328L77.8672 61.4844C79.8945 59.1758 80.9082 57.3418 80.9082 55.9824C80.9082 54.8809 80.668 54.043 80.1875 53.4688C79.707 52.8945 79.0098 52.6074 78.0957 52.6074C77.1934 52.6074 76.4609 52.9941 75.8984 53.7676C75.3359 54.5293 75.0547 55.4844 75.0547 56.6328H69.1133C69.1133 55.0625 69.5059 53.6152 70.291 52.291C71.0762 50.9551 72.166 49.9121 73.5605 49.1621C74.9551 48.4121 76.5137 48.0371 78.2363 48.0371C81.002 48.0371 83.1289 48.6758 84.6172 49.9531C86.1172 51.2305 86.8672 53.0645 86.8672 55.4551C86.8672 56.4629 86.6797 57.4473 86.3047 58.4082C85.9297 59.3574 85.3438 60.3594 84.5469 61.4141C83.7617 62.457 82.4902 63.8574 80.7324 65.6152L77.4277 69.4297H87.5V74ZM95.9023 58.7246H98.6973C100.912 58.7246 102.02 57.6406 102.02 55.4727C102.02 54.6289 101.756 53.9434 101.229 53.416C100.701 52.877 99.957 52.6074 98.9961 52.6074C98.2109 52.6074 97.5254 52.8359 96.9395 53.293C96.3652 53.75 96.0781 54.3184 96.0781 54.998H90.1543C90.1543 53.6504 90.5293 52.4492 91.2793 51.3945C92.0293 50.3398 93.0664 49.5195 94.3906 48.9336C95.7266 48.3359 97.1914 48.0371 98.7852 48.0371C101.633 48.0371 103.871 48.6875 105.5 49.9883C107.129 51.2891 107.943 53.0762 107.943 55.3496C107.943 56.4512 107.604 57.4941 106.924 58.4785C106.256 59.4512 105.277 60.2422 103.988 60.8516C105.348 61.3438 106.414 62.0938 107.188 63.1016C107.961 64.0977 108.348 65.334 108.348 66.8105C108.348 69.0957 107.469 70.9238 105.711 72.2949C103.953 73.666 101.645 74.3516 98.7852 74.3516C97.1094 74.3516 95.5508 74.0352 94.1094 73.4023C92.6797 72.7578 91.5957 71.873 90.8574 70.748C90.1191 69.6113 89.75 68.3223 89.75 66.8809H95.709C95.709 67.666 96.0254 68.3457 96.6582 68.9199C97.291 69.4941 98.0703 69.7812 98.9961 69.7812C100.039 69.7812 100.871 69.4941 101.492 68.9199C102.113 68.334 102.424 67.5898 102.424 66.6875C102.424 65.3984 102.102 64.4844 101.457 63.9453C100.812 63.4062 99.9219 63.1367 98.7852 63.1367H95.9023V58.7246Z" fill="white"/>
</g>
<g filter="url(#filter2_d)">
<rect x="194" width="148" height="92" fill="#EEE4DA"/>
</g>
<path d="M240.797 32V14.9375H246.773C248.844 14.9375 250.414 15.3359 251.484 16.1328C252.555 16.9219 253.09 18.082 253.09 19.6133C253.09 20.4492 252.875 21.1875 252.445 21.8281C252.016 22.4609 251.418 22.9258 250.652 23.2227C251.527 23.4414 252.215 23.8828 252.715 24.5469C253.223 25.2109 253.477 26.0234 253.477 26.9844C253.477 28.625 252.953 29.8672 251.906 30.7109C250.859 31.5547 249.367 31.9844 247.43 32H240.797ZM244.312 24.5703V29.1758H247.324C248.152 29.1758 248.797 28.9805 249.258 28.5898C249.727 28.1914 249.961 27.6445 249.961 26.9492C249.961 25.3867 249.152 24.5938 247.535 24.5703H244.312ZM244.312 22.0859H246.914C248.688 22.0547 249.574 21.3477 249.574 19.9648C249.574 19.1914 249.348 18.6367 248.895 18.3008C248.449 17.957 247.742 17.7852 246.773 17.7852H244.312V22.0859ZM266.391 24.6055H259.641V29.1758H267.562V32H256.125V14.9375H267.539V17.7852H259.641V21.8516H266.391V24.6055ZM278.473 27.5234C278.473 26.8594 278.238 26.3516 277.77 26C277.301 25.6406 276.457 25.2656 275.238 24.875C274.02 24.4766 273.055 24.0859 272.344 23.7031C270.406 22.6562 269.438 21.2461 269.438 19.4727C269.438 18.5508 269.695 17.7305 270.211 17.0117C270.734 16.2852 271.48 15.7188 272.449 15.3125C273.426 14.9062 274.52 14.7031 275.73 14.7031C276.949 14.7031 278.035 14.9258 278.988 15.3711C279.941 15.8086 280.68 16.4297 281.203 17.2344C281.734 18.0391 282 18.9531 282 19.9766H278.484C278.484 19.1953 278.238 18.5898 277.746 18.1602C277.254 17.7227 276.562 17.5039 275.672 17.5039C274.812 17.5039 274.145 17.6875 273.668 18.0547C273.191 18.4141 272.953 18.8906 272.953 19.4844C272.953 20.0391 273.23 20.5039 273.785 20.8789C274.348 21.2539 275.172 21.6055 276.258 21.9336C278.258 22.5352 279.715 23.2812 280.629 24.1719C281.543 25.0625 282 26.1719 282 27.5C282 28.9766 281.441 30.1367 280.324 30.9805C279.207 31.8164 277.703 32.2344 275.812 32.2344C274.5 32.2344 273.305 31.9961 272.227 31.5195C271.148 31.0352 270.324 30.375 269.754 29.5391C269.191 28.7031 268.91 27.7344 268.91 26.6328H272.438C272.438 28.5156 273.562 29.457 275.812 29.457C276.648 29.457 277.301 29.2891 277.77 28.9531C278.238 28.6094 278.473 28.1328 278.473 27.5234ZM297.234 17.7852H292.008V32H288.492V17.7852H283.336V14.9375H297.234V17.7852Z" fill="#776E65"/>
<g filter="url(#filter3_d)">
<path d="M239.145 61.4844L240.709 48.4062H255.668V53.0117H245.525L244.945 58.0918C245.367 57.8457 245.918 57.6289 246.598 57.4414C247.289 57.2539 247.963 57.1602 248.619 57.1602C251.162 57.1602 253.113 57.916 254.473 59.4277C255.844 60.9277 256.529 63.0371 256.529 65.7559C256.529 67.3965 256.16 68.8848 255.422 70.2207C254.695 71.5449 253.67 72.5645 252.346 73.2793C251.021 73.9941 249.457 74.3516 247.652 74.3516C246.047 74.3516 244.541 74.0234 243.135 73.3672C241.729 72.6992 240.627 71.791 239.83 70.6426C239.033 69.4824 238.641 68.1758 238.652 66.7227H244.594C244.652 67.6602 244.951 68.4043 245.49 68.9551C246.029 69.5059 246.738 69.7812 247.617 69.7812C249.609 69.7812 250.605 68.3047 250.605 65.3516C250.605 62.6211 249.387 61.2559 246.949 61.2559C245.566 61.2559 244.535 61.7012 243.855 62.5918L239.145 61.4844ZM273.949 48.0371V52.6953H273.686C271.471 52.6953 269.648 53.2285 268.219 54.2949C266.801 55.3496 265.928 56.8203 265.6 58.707C266.936 57.3945 268.623 56.7383 270.662 56.7383C272.877 56.7383 274.641 57.5469 275.953 59.1641C277.266 60.7812 277.922 62.9023 277.922 65.5273C277.922 67.1562 277.535 68.6504 276.762 70.0098C276 71.3691 274.928 72.4355 273.545 73.209C272.174 73.9707 270.65 74.3516 268.975 74.3516C267.158 74.3516 265.535 73.9414 264.105 73.1211C262.676 72.2891 261.562 71.1055 260.766 69.5703C259.969 68.0352 259.559 66.2656 259.535 64.2617V61.8887C259.535 59.252 260.098 56.8848 261.223 54.7871C262.359 52.6777 263.977 51.0254 266.074 49.8301C268.172 48.6348 270.498 48.0371 273.053 48.0371H273.949ZM268.605 61.2734C267.82 61.2734 267.164 61.4551 266.637 61.8184C266.109 62.1816 265.717 62.627 265.459 63.1543V64.9297C265.459 68.1641 266.578 69.7812 268.816 69.7812C269.719 69.7812 270.469 69.377 271.066 68.5684C271.676 67.7598 271.98 66.7461 271.98 65.5273C271.98 64.2734 271.67 63.2539 271.049 62.4688C270.439 61.6719 269.625 61.2734 268.605 61.2734ZM298.26 63.541C298.26 66.998 297.48 69.6641 295.922 71.5391C294.375 73.4141 292.189 74.3516 289.365 74.3516C286.518 74.3516 284.314 73.4082 282.756 71.5215C281.197 69.6348 280.418 66.9746 280.418 63.541V58.8652C280.418 55.4082 281.191 52.7422 282.738 50.8672C284.297 48.9922 286.494 48.0547 289.33 48.0547C292.166 48.0547 294.363 48.998 295.922 50.8848C297.48 52.7715 298.26 55.4375 298.26 58.8828V63.541ZM292.336 58.1094C292.336 56.2695 292.096 54.8984 291.615 53.9961C291.135 53.082 290.373 52.625 289.33 52.625C288.311 52.625 287.566 53.0469 287.098 53.8906C286.641 54.7344 286.395 56.0117 286.359 57.7227V64.2617C286.359 66.1719 286.6 67.5723 287.08 68.4629C287.561 69.3418 288.322 69.7812 289.365 69.7812C290.373 69.7812 291.117 69.3535 291.598 68.498C292.078 67.6309 292.324 66.2773 292.336 64.4375V58.1094Z" fill="white"/>
</g>
<defs>
<filter id="filter0_d" x="0" y="0" width="156" height="100" filterUnits="userSpaceOnUse" color-interpolation-filters="sRGB">
<feFlood flood-opacity="0" result="BackgroundImageFix"/>
<feColorMatrix in="SourceAlpha" type="matrix" values="0 0 0 0 0 0 0 0 0 0 0 0 0 0 0 0 0 0 127 0"/>
<feOffset dy="4"/>
<feGaussianBlur stdDeviation="2"/>
<feColorMatrix type="matrix" values="0 0 0 0 0 0 0 0 0 0 0 0 0 0 0 0 0 0 0.25 0"/>
<feBlend mode="normal" in2="BackgroundImageFix" result="effect1_dropShadow"/>
<feBlend mode="normal" in="SourceGraphic" in2="effect1_dropShadow" result="shape"/>
</filter>
<filter id="filter1_d" x="46.1465" y="48.0371" width="66.2012" height="34.3145" filterUnits="userSpaceOnUse" color-interpolation-filters="sRGB">
<feFlood flood-opacity="0" result="BackgroundImageFix"/>
<feColorMatrix in="SourceAlpha" type="matrix" values="0 0 0 0 0 0 0 0 0 0 0 0 0 0 0 0 0 0 127 0"/>
<feOffset dy="4"/>
<feGaussianBlur stdDeviation="2"/>
<feColorMatrix type="matrix" values="0 0 0 0 0 0 0 0 0 0 0 0 0 0 0 0 0 0 0.25 0"/>
<feBlend mode="normal" in2="BackgroundImageFix" result="effect1_dropShadow"/>
<feBlend mode="normal" in="SourceGraphic" in2="effect1_dropShadow" result="shape"/>
</filter>
<filter id="filter2_d" x="190" y="0" width="156" height="100" filterUnits="userSpaceOnUse" color-interpolation-filters="sRGB">
<feFlood flood-opacity="0" result="BackgroundImageFix"/>
<feColorMatrix in="SourceAlpha" type="matrix" values="0 0 0 0 0 0 0 0 0 0 0 0 0 0 0 0 0 0 127 0"/>
<feOffset dy="4"/>
<feGaussianBlur stdDeviation="2"/>
<feColorMatrix type="matrix" values="0 0 0 0 0 0 0 0 0 0 0 0 0 0 0 0 0 0 0.25 0"/>
<feBlend mode="normal" in2="BackgroundImageFix" result="effect1_dropShadow"/>
<feBlend mode="normal" in="SourceGraphic" in2="effect1_dropShadow" result="shape"/>
</filter>
<filter id="filter3_d" x="234.652" y="48.0371" width="67.6077" height="34.3145" filterUnits="userSpaceOnUse" color-interpolation-filters="sRGB">
<feFlood flood-opacity="0" result="BackgroundImageFix"/>
<feColorMatrix in="SourceAlpha" type="matrix" values="0 0 0 0 0 0 0 0 0 0 0 0 0 0 0 0 0 0 127 0"/>
<feOffset dy="4"/>
<feGaussianBlur stdDeviation="2"/>
<feColorMatrix type="matrix" values="0 0 0 0 0 0 0 0 0 0 0 0 0 0 0 0 0 0 0.25 0"/>
<feBlend mode="normal" in2="BackgroundImageFix" result="effect1_dropShadow"/>
<feBlend mode="normal" in="SourceGraphic" in2="effect1_dropShadow" result="shape"/>
</filter>
</defs>
</svg>
