<svg width="62" height="55" viewBox="0 0 62 55" fill="none" xmlns="http://www.w3.org/2000/svg">
<g id="toggle_on_24px">
<path id="icon/toggle/toggle_on_24px" fill-rule="evenodd" clip-rule="evenodd" d="M43.6667 14H18.25C9.83708 14 3 20.0525 3 27.5C3 34.9475 9.83708 41 18.25 41H43.6667C52.0796 41 58.9167 34.9475 58.9167 27.5C58.9167 20.0525 52.0796 14 43.6667 14ZM43.6667 36.5H18.25C12.6329 36.5 8.08333 32.4725 8.08333 27.5C8.08333 22.5275 12.6329 18.5 18.25 18.5H43.6667C49.2838 18.5 53.8333 22.5275 53.8333 27.5C53.8333 32.4725 49.2838 36.5 43.6667 36.5ZM36.0417 27.5C36.0417 23.765 39.4475 20.75 43.6667 20.75C47.8858 20.75 51.2917 23.765 51.2917 27.5C51.2917 31.235 47.8858 34.25 43.6667 34.25C39.4475 34.25 36.0417 31.235 36.0417 27.5Z" fill="#4F4F4F"/>
</g>
</svg>
